<svg xmlns="http://www.w3.org/2000/svg" xmlns:xlink="http://www.w3.org/1999/xlink" version="1.1" x="0px" y="0px" viewBox="0 0 100 125" enable-background="new 0 0 100 100" xml:space="preserve"><path d="M56.287,30.486v-5.743c9.418,1.419,19.148,11.145,20.773,23.072c1.619-12.88-1.398-21.232-8.168-28.115  C62.391,13.183,54.727,7.617,53.01,1.762v70.598c-4.909-6.317-13.438-6.594-20.098-3.447c-7.547,3.572-13.238,11.874-8.896,20.976  c4.304,9.101,14.291,9.964,21.876,6.394c5.893-2.801,10.657-8.478,10.393-15.178V47.855c9.418,1.419,19.15,11.146,20.775,23.071  c1.619-12.878-1.4-21.231-8.17-28.112C64.486,38.397,59.549,34.417,56.287,30.486z"/><text x="0" y="115" fill="#000000" font-size="5px" font-weight="bold" font-family="'Helvetica Neue', Helvetica, Arial-Unicode, Arial, Sans-serif">Created by Hollmann Graphic Design</text><text x="0" y="120" fill="#000000" font-size="5px" font-weight="bold" font-family="'Helvetica Neue', Helvetica, Arial-Unicode, Arial, Sans-serif">from the Noun Project</text></svg>